<svg width="316" height="225" viewBox="0 0 316 225" fill="none" xmlns="http://www.w3.org/2000/svg">
<g clip-path="url(#clip0_2149_46)">
<path d="M146.843 30.0714H83.0889V225.3H146.843V30.0714Z" fill="#C2EDFF"/>
<path d="M97.9149 115.426H34.1606V225.3H97.9149V115.426Z" fill="#0F8EE3"/>
<path d="M214.481 71.5021H146.837V225.299H214.481V71.5021Z" fill="#DEDDE1"/>
<path d="M6.44043 219.015C6.44043 212.15 12.0346 206.561 19.0218 206.334C21.8201 198.037 29.8287 192.044 39.2785 192.044C49.243 192.044 57.6096 198.706 59.9494 207.709C60.1327 207.701 60.3166 207.694 60.5017 207.694C66.9168 207.694 72.1166 212.763 72.1166 219.015L6.44043 219.015Z" fill="#7DCE09"/>
<path d="M187.567 195.248C202.431 195.248 214.481 183.504 214.481 169.016C214.481 154.528 202.431 142.784 187.567 142.784C172.703 142.784 160.653 154.528 160.653 169.016C160.653 183.504 172.703 195.248 187.567 195.248Z" fill="#7DCE09"/>
<path d="M248.743 60.9977C215.155 60.9977 187.926 87.5374 187.926 120.275C187.926 128.426 189.614 136.193 192.669 143.261C205.09 145.587 214.478 156.23 214.478 169.016C214.478 169.094 214.473 169.17 214.472 169.248C224.232 175.749 236.031 179.553 248.743 179.553C282.331 179.553 309.56 153.013 309.56 120.276C309.56 87.538 282.331 60.9977 248.743 60.9977Z" fill="#348E00"/>
<path d="M309.252 225.301H309.167C305.611 225.301 302.727 222.489 302.727 219.023C302.727 215.557 305.611 212.746 309.167 212.746H309.252C312.808 212.746 315.692 215.557 315.692 219.023C315.692 222.489 312.808 225.301 309.252 225.301Z" fill="black"/>
<path d="M60.6715 137.317C60.6715 133.851 57.7874 131.04 54.2311 131.04C50.6749 131.04 47.7908 133.851 47.7908 137.317V147.361C47.7908 150.827 50.6749 153.638 54.2311 153.638C57.7874 153.638 60.6715 150.827 60.6715 147.361V137.317Z" fill="black"/>
<path d="M76.7726 131.04C73.2164 131.04 70.3323 133.851 70.3323 137.317V147.361C70.3323 150.827 73.2164 153.638 76.7726 153.638C80.3289 153.638 83.213 150.827 83.213 147.361V137.317C83.213 133.851 80.3301 131.04 76.7726 131.04Z" fill="black"/>
<path d="M54.2311 163.686C50.6749 163.686 47.7908 166.497 47.7908 169.963V180.007C47.7908 183.473 50.6749 186.284 54.2311 186.284C57.7874 186.284 60.6715 183.473 60.6715 180.007V169.963C60.6715 166.496 57.788 163.686 54.2311 163.686Z" fill="black"/>
<path d="M76.7726 163.686C73.2164 163.686 70.3323 166.497 70.3323 169.963V180.007C70.3323 183.473 73.2164 186.284 76.7726 186.284C80.3289 186.284 83.213 183.473 83.213 180.007V169.963C83.213 166.496 80.3301 163.686 76.7726 163.686Z" fill="black"/>
<path d="M316 120.275C316 84.1284 285.828 54.7204 248.743 54.7204C235.293 54.7204 222.756 58.5902 212.235 65.2447C212.115 65.2387 211.996 65.2273 211.876 65.2273H153.283V30.0738C153.283 26.6075 150.399 23.7964 146.842 23.7964H83.0901C79.5339 23.7964 76.6498 26.6075 76.6498 30.0738V109.15H34.1576C30.6014 109.15 27.7173 111.961 27.7173 115.428V188.222C22.0429 190.751 17.3319 195.102 14.4681 200.673C6.08115 202.808 0 210.19 0 219.015C0 222.482 2.8835 225.293 6.44035 225.293H72.1165C75.6727 225.293 78.5569 222.482 78.5569 219.015C78.5569 210.715 72.6294 203.738 64.685 201.894C60.4856 192.597 51.2062 186.287 40.5986 185.8V121.704H91.4697V219.024C91.4697 222.49 94.3538 225.301 97.91 225.301C101.466 225.301 104.35 222.49 104.35 219.024V201.977H127.115C130.672 201.977 133.556 199.166 133.556 195.7C133.556 192.233 130.672 189.422 127.115 189.422H104.35V181.909H127.115C130.672 181.909 133.556 179.098 133.556 175.631C133.556 172.165 130.672 169.354 127.115 169.354H104.35V161.841H127.115C130.672 161.841 133.556 159.029 133.556 155.563C133.556 152.097 130.672 149.286 127.115 149.286H104.35V141.773H127.115C130.672 141.773 133.556 138.962 133.556 135.496C133.556 132.03 130.672 129.218 127.115 129.218H104.35V121.705H127.115C130.672 121.705 133.556 118.894 133.556 115.428C133.556 111.961 130.672 109.15 127.115 109.15H97.9106H89.5311V101.618H127.116C130.672 101.618 133.556 98.8065 133.556 95.3403C133.556 91.8741 130.672 89.063 127.116 89.063H89.5311V81.5495H127.116C130.672 81.5495 133.556 78.7383 133.556 75.2721C133.556 71.8059 130.672 68.9948 127.116 68.9948H89.5311V61.4621H127.116C130.672 61.4621 133.556 58.651 133.556 55.1848C133.556 51.7186 130.672 48.9075 127.116 48.9075H89.5311V36.3529H140.402V219.027C140.402 222.493 143.286 225.304 146.842 225.304C150.399 225.304 153.283 222.493 153.283 219.027V141.792H163.612C167.168 141.792 170.052 138.981 170.052 135.514C170.052 132.048 167.168 129.237 163.612 129.237H153.283V121.704H163.612C167.168 121.704 170.052 118.893 170.052 115.427C170.052 111.961 167.168 109.15 163.612 109.15H153.283V101.617H163.612C167.168 101.617 170.052 98.8059 170.052 95.3397C170.052 91.8735 167.168 89.0624 163.612 89.0624H153.283V77.7825H197.573C187.548 89.2344 181.485 104.077 181.485 120.276C181.485 125.889 182.205 131.397 183.626 136.742C167.085 138.647 154.21 152.391 154.21 169.017C154.21 184.796 165.805 197.979 181.124 200.912V212.748H172.73C169.174 212.748 166.289 215.559 166.289 219.025C166.289 222.491 169.174 225.302 172.73 225.302H288.331C291.888 225.302 294.772 222.491 294.772 219.025C294.772 215.559 291.888 212.748 288.331 212.748H254.821V185.56C289.068 182.554 316 154.424 316 120.275ZM53.7058 209.25C54.0792 210.689 54.9439 211.9 56.0937 212.738H18.1089C18.4737 212.665 18.8501 212.621 19.2359 212.608C21.9373 212.52 24.295 210.798 25.1399 208.295C27.1519 202.329 32.8338 198.322 39.2778 198.322C46.1002 198.321 52.0332 202.815 53.7058 209.25ZM187.565 158.893C184.008 158.893 181.124 161.704 181.124 165.17V187.953C172.982 185.315 167.091 177.826 167.091 169.015C167.091 158.012 176.276 149.06 187.564 149.06C198.853 149.06 208.037 158.012 208.037 169.015C208.037 177.825 202.147 185.314 194.006 187.952V165.17C194.005 161.704 191.121 158.893 187.565 158.893ZM241.939 212.746H194.005V200.91C205.873 198.637 215.498 190.21 219.234 179.191C226.351 182.586 234.017 184.711 241.939 185.487L241.939 212.746ZM248.38 102.577C244.823 102.577 241.939 105.388 241.939 108.854V134.888L229.89 123.143C227.375 120.693 223.298 120.693 220.781 123.143C218.266 125.595 218.266 129.57 220.781 132.022L241.939 152.645V172.856C234.435 171.943 227.242 169.527 220.746 165.714C219.384 152.612 210.005 141.783 197.48 137.974C195.418 132.309 194.367 126.372 194.367 120.276C194.367 91.0517 218.76 67.2756 248.743 67.2756C278.727 67.2756 303.12 91.0511 303.12 120.276C303.12 147.496 281.953 169.98 254.822 172.936V150.047C254.822 150.045 254.822 150.043 254.822 150.041V141.235L274.42 122.134C276.935 119.682 276.935 115.707 274.42 113.255C271.906 110.805 267.829 110.804 265.311 113.255L254.821 123.48V108.855C254.821 105.388 251.937 102.577 248.38 102.577Z" fill="black"/>
</g>
<defs>
<clipPath id="clip0_2149_46">
<rect width="316" height="225" fill="white"/>
</clipPath>
</defs>
</svg>
