<!DOCTYPE svg PUBLIC "-//W3C//DTD SVG 1.1//EN" "http://www.w3.org/Graphics/SVG/1.1/DTD/svg11.dtd">
<!-- Uploaded to: SVG Repo, www.svgrepo.com, Transformed by: SVG Repo Mixer Tools -->
<svg fill="#002f6c" height="800px" width="800px" version="1.1" id="Layer_1" xmlns="http://www.w3.org/2000/svg" xmlns:xlink="http://www.w3.org/1999/xlink" viewBox="-29.1 -29.1 543.20 543.20" xml:space="preserve">
<g id="SVGRepo_bgCarrier" stroke-width="0"/>
<g id="SVGRepo_tracerCarrier" stroke-linecap="round" stroke-linejoin="round" stroke="#ffffff" stroke-width="38.8"> <g> <path d="M455,26.5v49.99c0,14.705-11.463,27.01-26.168,27.01h-20.588c4.31-8.034,6.756-17.237,6.756-27.01V26.5h-30v49.99 c0,14.705-11,26.668-26,26.668v0.341h-17.936C343.632,96.942,345,89.836,345,82.49V26.5h-30v55.99 c0,10.056-5.44,19.157-14.398,23.752l0.082,0.159c-22.359,7.413-38.534,28.277-38.676,53.098h-38.017 c-0.144-25.177-16.777-46.294-39.635-53.419C175.571,101.438,170,92.435,170,82.49V26.5h-30v55.99 c0,7.346,1.427,14.451,4.072,21.01H127v-0.341c-15,0-27-11.963-27-26.668V26.5H70v49.99c0,9.773,2.544,18.976,6.988,27.01h-19.82 C42.463,103.5,30,91.195,30,76.49V26.5H0v49.99c0,31.247,25.921,57.01,57.168,57.01h110.179c14.705,0,26.653,11.622,26.653,26.327 v4.719c-5.756,4.321-9.668,11.022-10.296,18.551c-7.992,3.095-14.901,8.403-20.006,15.403H45v25.687 c0,30.355,24.205,55.313,54.56,55.313h24.793l38.117,87.099l6.814,58.941c2.182,18.209,18.911,32.96,37.177,32.96h73.078 c18.266,0,34.996-14.839,37.177-33.048l6.814-58.883l38.19-87.069h24.721c30.355,0,54.559-24.958,54.559-55.313V198.5H322.302 c-5.105-7-12.014-12.307-20.006-15.403c-0.628-7.529-4.541-14.23-10.296-18.551v-4.719c0-14.705,11.948-26.327,26.653-26.327 h110.179c31.247,0,56.168-25.762,56.168-57.01V26.5H455z M218,309.5h-30v-40h30V309.5z M258,409.5h-30v-40h30V409.5z M298,269.5v40 h-30v-40H298z"/> </g> </g>
<g id="SVGRepo_iconCarrier"> <g> <path d="M455,26.5v49.99c0,14.705-11.463,27.01-26.168,27.01h-20.588c4.31-8.034,6.756-17.237,6.756-27.01V26.5h-30v49.99 c0,14.705-11,26.668-26,26.668v0.341h-17.936C343.632,96.942,345,89.836,345,82.49V26.5h-30v55.99 c0,10.056-5.44,19.157-14.398,23.752l0.082,0.159c-22.359,7.413-38.534,28.277-38.676,53.098h-38.017 c-0.144-25.177-16.777-46.294-39.635-53.419C175.571,101.438,170,92.435,170,82.49V26.5h-30v55.99 c0,7.346,1.427,14.451,4.072,21.01H127v-0.341c-15,0-27-11.963-27-26.668V26.5H70v49.99c0,9.773,2.544,18.976,6.988,27.01h-19.82 C42.463,103.5,30,91.195,30,76.49V26.5H0v49.99c0,31.247,25.921,57.01,57.168,57.01h110.179c14.705,0,26.653,11.622,26.653,26.327 v4.719c-5.756,4.321-9.668,11.022-10.296,18.551c-7.992,3.095-14.901,8.403-20.006,15.403H45v25.687 c0,30.355,24.205,55.313,54.56,55.313h24.793l38.117,87.099l6.814,58.941c2.182,18.209,18.911,32.96,37.177,32.96h73.078 c18.266,0,34.996-14.839,37.177-33.048l6.814-58.883l38.19-87.069h24.721c30.355,0,54.559-24.958,54.559-55.313V198.5H322.302 c-5.105-7-12.014-12.307-20.006-15.403c-0.628-7.529-4.541-14.23-10.296-18.551v-4.719c0-14.705,11.948-26.327,26.653-26.327 h110.179c31.247,0,56.168-25.762,56.168-57.01V26.5H455z M218,309.5h-30v-40h30V309.5z M258,409.5h-30v-40h30V409.5z M298,269.5v40 h-30v-40H298z"/> </g> </g>
</svg>