<svg width="317" height="243" viewBox="0 0 317 243" fill="none" xmlns="http://www.w3.org/2000/svg">
<g clip-path="url(#clip0_2149_18)">
<path d="M249.611 218.112V278.559H213.046V201.707L249.611 218.112Z" fill="#A18E84"/>
<path d="M163.302 155.226H198.823L152.332 214.812H310.324L263.834 155.226H299.354L254.557 97.8077H287.978L231.328 25.1999L174.679 97.8077L163.302 155.226Z" fill="#4BAA62"/>
<path d="M103.955 201.707V278.559H67.3884V218.112L103.955 201.707Z" fill="#A18E84"/>
<path d="M142.321 97.8077L85.6717 25.1999L29.0228 97.8077H62.4434L17.6455 155.226H53.1656L6.67554 214.812H164.667L118.177 155.226H153.697L142.321 97.8077Z" fill="#4BAA62"/>
<path d="M239.325 214.812L192.834 155.226H228.355L183.557 97.8077H216.977L160.328 25.1999L103.68 97.8077H137.1L92.3022 155.226H127.823L81.3323 214.812H239.325Z" fill="#6BBD71"/>
<path d="M178.611 214.807H142.044V278.556H178.611V214.807Z" fill="#A18E84"/>
<path d="M315.594 210.727L277.485 161.881H299.354C301.904 161.881 304.232 160.433 305.351 158.15C306.472 155.865 306.189 153.146 304.624 151.14L268.207 104.464H287.977C290.527 104.464 292.855 103.016 293.974 100.732C295.094 98.4478 294.812 95.7282 293.247 93.7221L236.598 21.1136C235.333 19.4921 233.389 18.5446 231.328 18.5446C229.268 18.5446 227.324 19.4933 226.058 21.1136L195.828 59.8607L165.598 21.1136C164.333 19.4921 162.388 18.5446 160.328 18.5446C158.267 18.5446 156.323 19.4933 155.058 21.1136L122.999 62.2044L90.9406 21.1136C89.6757 19.4921 87.731 18.5446 85.6705 18.5446C83.61 18.5446 81.6659 19.4933 80.4009 21.1136L23.7533 93.7208C22.1875 95.7276 21.9052 98.4478 23.0258 100.731C24.1465 103.014 26.4732 104.462 29.0228 104.462H48.7932L12.3766 151.138C10.8108 153.145 10.5285 155.865 11.6491 158.149C12.7691 160.433 15.0965 161.88 17.6461 161.88H39.516L1.40665 210.727C-0.159155 212.733 -0.441483 215.454 0.679162 217.737C1.79981 220.02 4.12654 221.468 6.67616 221.468H60.7129V257.849C55.0713 257.182 51.4475 255.708 47.4286 254.066C41.5133 251.648 34.8074 248.91 22.0884 248.91C18.4014 248.91 15.4122 251.89 15.4122 255.566V290.841C15.4122 294.516 18.4008 297.497 22.0884 297.497H295.802C299.489 297.497 302.479 294.517 302.479 290.841V255.566C302.479 251.89 299.489 248.91 295.802 248.91C283.082 248.91 276.376 251.648 270.46 254.066C266.235 255.792 262.444 257.331 256.288 257.943V221.468H310.324C312.874 221.468 315.202 220.02 316.321 217.736C317.442 215.454 317.16 212.733 315.594 210.727ZM160.329 36.0397L203.326 91.1518H183.557C181.007 91.1518 178.679 92.5999 177.56 94.8831C176.44 97.1676 176.722 99.8873 178.287 101.893L214.704 148.569H192.834C190.284 148.569 187.956 150.017 186.837 152.301C185.717 154.585 185.999 157.305 187.564 159.311L225.674 208.156H94.9823L133.091 159.311C134.657 157.304 134.939 154.584 133.819 152.301C132.699 150.017 130.371 148.569 127.822 148.569H105.952L142.368 101.893C143.934 99.8867 144.216 97.1664 143.096 94.8831C141.976 92.5992 139.648 91.1518 137.099 91.1518H117.329L160.329 36.0397ZM204.56 248.91C195.894 248.91 190.023 250.182 185.288 251.757V221.469H206.369V248.934C205.776 248.922 205.181 248.91 204.56 248.91ZM135.37 221.469V252.752C130.145 250.755 123.759 248.91 113.322 248.91C112.39 248.91 111.5 248.929 110.631 248.958V221.47L135.37 221.469ZM148.721 221.469H171.936V256.693C168.575 257.621 164.603 258.229 158.94 258.229C154.752 258.229 151.496 257.893 148.721 257.345V221.469ZM58.4351 159.312C60.0009 157.305 60.2832 154.585 59.1626 152.301C58.0425 150.017 55.7152 148.57 53.1656 148.57H31.2963L67.7129 101.894C69.2787 99.8873 69.561 97.167 68.4404 94.8838C67.3204 92.5999 64.993 91.1524 62.4434 91.1524H42.673L85.6717 36.0404L114.542 73.0449L98.4099 93.7214C96.8441 95.7282 96.5618 98.4485 97.6824 100.732C98.8024 103.016 101.13 104.463 103.679 104.463H123.449L87.0326 151.139C85.4668 153.146 85.1844 155.866 86.3051 158.149C87.4251 160.433 89.7524 161.881 92.3021 161.881H114.172L78.0674 208.156H20.3264L58.4351 159.312ZM97.2793 221.469V250.798C93.6629 251.753 90.7332 252.943 87.9823 254.067C83.8155 255.769 80.074 257.291 74.064 257.92V221.469H97.2793ZM275.523 266.384C279.619 264.71 283.296 263.209 289.127 262.56V284.185H28.7646V262.56C34.5932 263.209 38.2703 264.71 42.3659 266.384C48.2812 268.801 54.9871 271.54 67.7067 271.54C80.4251 271.54 87.1304 268.801 93.0457 266.384C98.5121 264.151 103.233 262.222 113.323 262.222C123.413 262.222 128.134 264.151 133.601 266.384C139.516 268.801 146.222 271.54 158.941 271.54C171.661 271.54 178.366 268.801 184.283 266.384C189.749 264.151 194.471 262.222 204.561 262.222C214.651 262.222 219.373 264.151 224.84 266.384C230.756 268.801 237.462 271.54 250.182 271.54C262.9 271.54 269.606 268.801 275.523 266.384ZM242.935 257.817C237.437 257.137 233.859 255.683 229.901 254.066C226.929 252.851 223.755 251.556 219.721 250.568V221.469H242.935V257.817ZM242.59 208.158L206.485 161.882H228.355C230.905 161.882 233.233 160.434 234.352 158.15C235.472 155.866 235.19 153.146 233.625 151.14L197.208 104.464H216.978C219.527 104.464 221.855 103.016 222.975 100.732C224.095 98.4478 223.813 95.7282 222.247 93.7221L204.287 70.7017L231.329 36.0404L274.328 91.1524H254.558C252.008 91.1524 249.68 92.6005 248.561 94.8838C247.441 97.1683 247.723 99.8879 249.288 101.894L285.706 148.57H263.834C261.285 148.57 258.957 150.018 257.837 152.301C256.717 154.586 257 157.305 258.565 159.312L296.674 208.157H242.59V208.158Z" fill="#231F20"/>
</g>
<defs>
<clipPath id="clip0_2149_18">
<rect width="317" height="243" fill="white"/>
</clipPath>
</defs>
</svg>
